<svg xmlns="http://www.w3.org/2000/svg" width="40" height="52" fill="none" viewBox="0 0 40 52">
    <path fill="red"
          d="M.461 4.674a1 1 0 0 0 .345 1.334l2.546 1.59a1 1 0 0 0 1.393-.342l2.25-3.837a1 1 0 0 0-.366-1.373L3.936.504a1 1 0 0 0-1.372.382L.461 4.674Z"/>
    <path fill="red" fill-rule="evenodd"
          d="M4.045 51a1 1 0 0 0 1 1H38.73a1 1 0 0 0 1-1v-1.14a1 1 0 0 0-1-1h-7.438a1 1 0 0 1-1-1v-1.138a1 1 0 0 0-1-1H27.67a1 1 0 0 1-.859-.488l-4.505-7.562c-.2-.334-.182-.754-.027-1.111.1-.228.195-.507.239-.803.067-.456.053-1.242.031-1.792-.014-.38.176-.74.505-.93l9.154-5.338c.24-.14.529-.173.799-.107.938.23 3.218.672 4.494-.091 1.584-.948 2.5-2.435 2.5-4.298 0-2.136-1.506-3.5-3.5-4.202-1.111-.39-2.73-.067-3.491.126-.273.07-.564.038-.807-.103L14.7 8.93a1 1 0 0 1-.397-1.309l.253-.513a1 1 0 0 0-.386-1.302l-3.769-2.24a1 1 0 0 0-1.378.363L6.107 9.02a1 1 0 0 0 .357 1.356l3.713 2.205a1 1 0 0 0 1.382-.368l.08-.143a1 1 0 0 1 1.37-.376l16.868 9.686c.38.218.572.659.494 1.09a8.49 8.49 0 0 0-.079.506c-.022.19-.028.404-.027.6.003.385-.183.752-.514.948l-9.442 5.586c-.253.15-.558.18-.843.108-.776-.193-2.402-.471-3.556.219-1.133.677-2.05 1.454-2.427 2.73-.428 1.446-.426 2.176.09 3.593.353.97 1.406 1.779 1.858 2.091.136.094.253.213.337.356l2.431 4.143a1 1 0 0 1 .138.506v.867a1 1 0 0 1-1 1h-3.393a1 1 0 0 0-1 1v1.139a1 1 0 0 1-1 1h-6.9a1 1 0 0 0-1 1V51Zm11.28-15.97c-.136-1.403.949-2.753 2.338-2.866 1.497-.12 2.943 1.264 2.786 2.776-.131 1.275-1.252 2.423-2.516 2.502-1.357.084-2.473-1.042-2.607-2.411Zm19.821-14.012c1.365-.045 2.597 1.077 2.517 2.457-.076 1.308-1.088 2.442-2.382 2.411-1.162-.028-2.244-.802-2.472-1.956-.276-1.396.931-2.865 2.337-2.912Z"
          clip-rule="evenodd"/>
</svg>
